<svg xmlns="http://www.w3.org/2000/svg" width="1200" height="630" viewBox="0 0 1200 630">
<defs></defs>
<rect width="1200" height="630" fill="#0a0a0b"></rect>
<rect x="22" y="14" width="1156" height="602" fill="#f6f1e8"></rect><line x1="22" y1="14" x2="1178" y2="14" stroke="rgba(0,0,0,0.012)" stroke-width="1"></line><line x1="22" y1="18" x2="1178" y2="18" stroke="rgba(0,0,0,0.012)" stroke-width="1"></line><line x1="22" y1="22" x2="1178" y2="22" stroke="rgba(0,0,0,0.012)" stroke-width="1"></line><line x1="22" y1="26" x2="1178" y2="26" stroke="rgba(0,0,0,0.012)" stroke-width="1"></line><line x1="22" y1="30" x2="1178" y2="30" stroke="rgba(0,0,0,0.012)" stroke-width="1"></line><line x1="22" y1="34" x2="1178" y2="34" stroke="rgba(0,0,0,0.012)" stroke-width="1"></line><line x1="22" y1="38" x2="1178" y2="38" stroke="rgba(0,0,0,0.012)" stroke-width="1"></line><line x1="22" y1="42" x2="1178" y2="42" stroke="rgba(0,0,0,0.012)" stroke-width="1"></line><line x1="22" y1="46" x2="1178" y2="46" stroke="rgba(0,0,0,0.012)" stroke-width="1"></line><line x1="22" y1="50" x2="1178" y2="50" stroke="rgba(0,0,0,0.012)" stroke-width="1"></line><line x1="22" y1="54" x2="1178" y2="54" stroke="rgba(0,0,0,0.012)" stroke-width="1"></line><line x1="22" y1="58" x2="1178" y2="58" stroke="rgba(0,0,0,0.012)" stroke-width="1"></line><line x1="22" y1="62" x2="1178" y2="62" stroke="rgba(0,0,0,0.012)" stroke-width="1"></line><line x1="22" y1="66" x2="1178" y2="66" stroke="rgba(0,0,0,0.012)" stroke-width="1"></line><line x1="22" y1="70" x2="1178" y2="70" stroke="rgba(0,0,0,0.012)" stroke-width="1"></line><line x1="22" y1="74" x2="1178" y2="74" stroke="rgba(0,0,0,0.012)" stroke-width="1"></line><line x1="22" y1="78" x2="1178" y2="78" stroke="rgba(0,0,0,0.012)" stroke-width="1"></line><line x1="22" y1="82" x2="1178" y2="82" stroke="rgba(0,0,0,0.012)" stroke-width="1"></line><line x1="22" y1="86" x2="1178" y2="86" stroke="rgba(0,0,0,0.012)" stroke-width="1"></line><line x1="22" y1="90" x2="1178" y2="90" stroke="rgba(0,0,0,0.012)" stroke-width="1"></line><line x1="22" y1="94" x2="1178" y2="94" stroke="rgba(0,0,0,0.012)" stroke-width="1"></line><line x1="22" y1="98" x2="1178" y2="98" stroke="rgba(0,0,0,0.012)" stroke-width="1"></line><line x1="22" y1="102" x2="1178" y2="102" stroke="rgba(0,0,0,0.012)" stroke-width="1"></line><line x1="22" y1="106" x2="1178" y2="106" stroke="rgba(0,0,0,0.012)" stroke-width="1"></line><line x1="22" y1="110" x2="1178" y2="110" stroke="rgba(0,0,0,0.012)" stroke-width="1"></line><line x1="22" y1="114" x2="1178" y2="114" stroke="rgba(0,0,0,0.012)" stroke-width="1"></line><line x1="22" y1="118" x2="1178" y2="118" stroke="rgba(0,0,0,0.012)" stroke-width="1"></line><line x1="22" y1="122" x2="1178" y2="122" stroke="rgba(0,0,0,0.012)" stroke-width="1"></line><line x1="22" y1="126" x2="1178" y2="126" stroke="rgba(0,0,0,0.012)" stroke-width="1"></line><line x1="22" y1="130" x2="1178" y2="130" stroke="rgba(0,0,0,0.012)" stroke-width="1"></line><line x1="22" y1="134" x2="1178" y2="134" stroke="rgba(0,0,0,0.012)" stroke-width="1"></line><line x1="22" y1="138" x2="1178" y2="138" stroke="rgba(0,0,0,0.012)" stroke-width="1"></line><line x1="22" y1="142" x2="1178" y2="142" stroke="rgba(0,0,0,0.012)" stroke-width="1"></line><line x1="22" y1="146" x2="1178" y2="146" stroke="rgba(0,0,0,0.012)" stroke-width="1"></line><line x1="22" y1="150" x2="1178" y2="150" stroke="rgba(0,0,0,0.012)" stroke-width="1"></line><line x1="22" y1="154" x2="1178" y2="154" stroke="rgba(0,0,0,0.012)" stroke-width="1"></line><line x1="22" y1="158" x2="1178" y2="158" stroke="rgba(0,0,0,0.012)" stroke-width="1"></line><line x1="22" y1="162" x2="1178" y2="162" stroke="rgba(0,0,0,0.012)" stroke-width="1"></line><line x1="22" y1="166" x2="1178" y2="166" stroke="rgba(0,0,0,0.012)" stroke-width="1"></line><line x1="22" y1="170" x2="1178" y2="170" stroke="rgba(0,0,0,0.012)" stroke-width="1"></line><line x1="22" y1="174" x2="1178" y2="174" stroke="rgba(0,0,0,0.012)" stroke-width="1"></line><line x1="22" y1="178" x2="1178" y2="178" stroke="rgba(0,0,0,0.012)" stroke-width="1"></line><line x1="22" y1="182" x2="1178" y2="182" stroke="rgba(0,0,0,0.012)" stroke-width="1"></line><line x1="22" y1="186" x2="1178" y2="186" stroke="rgba(0,0,0,0.012)" stroke-width="1"></line><line x1="22" y1="190" x2="1178" y2="190" stroke="rgba(0,0,0,0.012)" stroke-width="1"></line><line x1="22" y1="194" x2="1178" y2="194" stroke="rgba(0,0,0,0.012)" stroke-width="1"></line><line x1="22" y1="198" x2="1178" y2="198" stroke="rgba(0,0,0,0.012)" stroke-width="1"></line><line x1="22" y1="202" x2="1178" y2="202" stroke="rgba(0,0,0,0.012)" stroke-width="1"></line><line x1="22" y1="206" x2="1178" y2="206" stroke="rgba(0,0,0,0.012)" stroke-width="1"></line><line x1="22" y1="210" x2="1178" y2="210" stroke="rgba(0,0,0,0.012)" stroke-width="1"></line><line x1="22" y1="214" x2="1178" y2="214" stroke="rgba(0,0,0,0.012)" stroke-width="1"></line><line x1="22" y1="218" x2="1178" y2="218" stroke="rgba(0,0,0,0.012)" stroke-width="1"></line><line x1="22" y1="222" x2="1178" y2="222" stroke="rgba(0,0,0,0.012)" stroke-width="1"></line><line x1="22" y1="226" x2="1178" y2="226" stroke="rgba(0,0,0,0.012)" stroke-width="1"></line><line x1="22" y1="230" x2="1178" y2="230" stroke="rgba(0,0,0,0.012)" stroke-width="1"></line><line x1="22" y1="234" x2="1178" y2="234" stroke="rgba(0,0,0,0.012)" stroke-width="1"></line><line x1="22" y1="238" x2="1178" y2="238" stroke="rgba(0,0,0,0.012)" stroke-width="1"></line><line x1="22" y1="242" x2="1178" y2="242" stroke="rgba(0,0,0,0.012)" stroke-width="1"></line><line x1="22" y1="246" x2="1178" y2="246" stroke="rgba(0,0,0,0.012)" stroke-width="1"></line><line x1="22" y1="250" x2="1178" y2="250" stroke="rgba(0,0,0,0.012)" stroke-width="1"></line><line x1="22" y1="254" x2="1178" y2="254" stroke="rgba(0,0,0,0.012)" stroke-width="1"></line><line x1="22" y1="258" x2="1178" y2="258" stroke="rgba(0,0,0,0.012)" stroke-width="1"></line><line x1="22" y1="262" x2="1178" y2="262" stroke="rgba(0,0,0,0.012)" stroke-width="1"></line><line x1="22" y1="266" x2="1178" y2="266" stroke="rgba(0,0,0,0.012)" stroke-width="1"></line><line x1="22" y1="270" x2="1178" y2="270" stroke="rgba(0,0,0,0.012)" stroke-width="1"></line><line x1="22" y1="274" x2="1178" y2="274" stroke="rgba(0,0,0,0.012)" stroke-width="1"></line><line x1="22" y1="278" x2="1178" y2="278" stroke="rgba(0,0,0,0.012)" stroke-width="1"></line><line x1="22" y1="282" x2="1178" y2="282" stroke="rgba(0,0,0,0.012)" stroke-width="1"></line><line x1="22" y1="286" x2="1178" y2="286" stroke="rgba(0,0,0,0.012)" stroke-width="1"></line><line x1="22" y1="290" x2="1178" y2="290" stroke="rgba(0,0,0,0.012)" stroke-width="1"></line><line x1="22" y1="294" x2="1178" y2="294" stroke="rgba(0,0,0,0.012)" stroke-width="1"></line><line x1="22" y1="298" x2="1178" y2="298" stroke="rgba(0,0,0,0.012)" stroke-width="1"></line><line x1="22" y1="302" x2="1178" y2="302" stroke="rgba(0,0,0,0.012)" stroke-width="1"></line><line x1="22" y1="306" x2="1178" y2="306" stroke="rgba(0,0,0,0.012)" stroke-width="1"></line><line x1="22" y1="310" x2="1178" y2="310" stroke="rgba(0,0,0,0.012)" stroke-width="1"></line><line x1="22" y1="314" x2="1178" y2="314" stroke="rgba(0,0,0,0.012)" stroke-width="1"></line><line x1="22" y1="318" x2="1178" y2="318" stroke="rgba(0,0,0,0.012)" stroke-width="1"></line><line x1="22" y1="322" x2="1178" y2="322" stroke="rgba(0,0,0,0.012)" stroke-width="1"></line><line x1="22" y1="326" x2="1178" y2="326" stroke="rgba(0,0,0,0.012)" stroke-width="1"></line><line x1="22" y1="330" x2="1178" y2="330" stroke="rgba(0,0,0,0.012)" stroke-width="1"></line><line x1="22" y1="334" x2="1178" y2="334" stroke="rgba(0,0,0,0.012)" stroke-width="1"></line><line x1="22" y1="338" x2="1178" y2="338" stroke="rgba(0,0,0,0.012)" stroke-width="1"></line><line x1="22" y1="342" x2="1178" y2="342" stroke="rgba(0,0,0,0.012)" stroke-width="1"></line><line x1="22" y1="346" x2="1178" y2="346" stroke="rgba(0,0,0,0.012)" stroke-width="1"></line><line x1="22" y1="350" x2="1178" y2="350" stroke="rgba(0,0,0,0.012)" stroke-width="1"></line><line x1="22" y1="354" x2="1178" y2="354" stroke="rgba(0,0,0,0.012)" stroke-width="1"></line><line x1="22" y1="358" x2="1178" y2="358" stroke="rgba(0,0,0,0.012)" stroke-width="1"></line><line x1="22" y1="362" x2="1178" y2="362" stroke="rgba(0,0,0,0.012)" stroke-width="1"></line><line x1="22" y1="366" x2="1178" y2="366" stroke="rgba(0,0,0,0.012)" stroke-width="1"></line><line x1="22" y1="370" x2="1178" y2="370" stroke="rgba(0,0,0,0.012)" stroke-width="1"></line><line x1="22" y1="374" x2="1178" y2="374" stroke="rgba(0,0,0,0.012)" stroke-width="1"></line><line x1="22" y1="378" x2="1178" y2="378" stroke="rgba(0,0,0,0.012)" stroke-width="1"></line><line x1="22" y1="382" x2="1178" y2="382" stroke="rgba(0,0,0,0.012)" stroke-width="1"></line><line x1="22" y1="386" x2="1178" y2="386" stroke="rgba(0,0,0,0.012)" stroke-width="1"></line><line x1="22" y1="390" x2="1178" y2="390" stroke="rgba(0,0,0,0.012)" stroke-width="1"></line><line x1="22" y1="394" x2="1178" y2="394" stroke="rgba(0,0,0,0.012)" stroke-width="1"></line><line x1="22" y1="398" x2="1178" y2="398" stroke="rgba(0,0,0,0.012)" stroke-width="1"></line><line x1="22" y1="402" x2="1178" y2="402" stroke="rgba(0,0,0,0.012)" stroke-width="1"></line><line x1="22" y1="406" x2="1178" y2="406" stroke="rgba(0,0,0,0.012)" stroke-width="1"></line><line x1="22" y1="410" x2="1178" y2="410" stroke="rgba(0,0,0,0.012)" stroke-width="1"></line><line x1="22" y1="414" x2="1178" y2="414" stroke="rgba(0,0,0,0.012)" stroke-width="1"></line><line x1="22" y1="418" x2="1178" y2="418" stroke="rgba(0,0,0,0.012)" stroke-width="1"></line><line x1="22" y1="422" x2="1178" y2="422" stroke="rgba(0,0,0,0.012)" stroke-width="1"></line><line x1="22" y1="426" x2="1178" y2="426" stroke="rgba(0,0,0,0.012)" stroke-width="1"></line><line x1="22" y1="430" x2="1178" y2="430" stroke="rgba(0,0,0,0.012)" stroke-width="1"></line><line x1="22" y1="434" x2="1178" y2="434" stroke="rgba(0,0,0,0.012)" stroke-width="1"></line><line x1="22" y1="438" x2="1178" y2="438" stroke="rgba(0,0,0,0.012)" stroke-width="1"></line><line x1="22" y1="442" x2="1178" y2="442" stroke="rgba(0,0,0,0.012)" stroke-width="1"></line><line x1="22" y1="446" x2="1178" y2="446" stroke="rgba(0,0,0,0.012)" stroke-width="1"></line><line x1="22" y1="450" x2="1178" y2="450" stroke="rgba(0,0,0,0.012)" stroke-width="1"></line><line x1="22" y1="454" x2="1178" y2="454" stroke="rgba(0,0,0,0.012)" stroke-width="1"></line><line x1="22" y1="458" x2="1178" y2="458" stroke="rgba(0,0,0,0.012)" stroke-width="1"></line><line x1="22" y1="462" x2="1178" y2="462" stroke="rgba(0,0,0,0.012)" stroke-width="1"></line><line x1="22" y1="466" x2="1178" y2="466" stroke="rgba(0,0,0,0.012)" stroke-width="1"></line><line x1="22" y1="470" x2="1178" y2="470" stroke="rgba(0,0,0,0.012)" stroke-width="1"></line><line x1="22" y1="474" x2="1178" y2="474" stroke="rgba(0,0,0,0.012)" stroke-width="1"></line><line x1="22" y1="478" x2="1178" y2="478" stroke="rgba(0,0,0,0.012)" stroke-width="1"></line><line x1="22" y1="482" x2="1178" y2="482" stroke="rgba(0,0,0,0.012)" stroke-width="1"></line><line x1="22" y1="486" x2="1178" y2="486" stroke="rgba(0,0,0,0.012)" stroke-width="1"></line><line x1="22" y1="490" x2="1178" y2="490" stroke="rgba(0,0,0,0.012)" stroke-width="1"></line><line x1="22" y1="494" x2="1178" y2="494" stroke="rgba(0,0,0,0.012)" stroke-width="1"></line><line x1="22" y1="498" x2="1178" y2="498" stroke="rgba(0,0,0,0.012)" stroke-width="1"></line><line x1="22" y1="502" x2="1178" y2="502" stroke="rgba(0,0,0,0.012)" stroke-width="1"></line><line x1="22" y1="506" x2="1178" y2="506" stroke="rgba(0,0,0,0.012)" stroke-width="1"></line><line x1="22" y1="510" x2="1178" y2="510" stroke="rgba(0,0,0,0.012)" stroke-width="1"></line><line x1="22" y1="514" x2="1178" y2="514" stroke="rgba(0,0,0,0.012)" stroke-width="1"></line><line x1="22" y1="518" x2="1178" y2="518" stroke="rgba(0,0,0,0.012)" stroke-width="1"></line><line x1="22" y1="522" x2="1178" y2="522" stroke="rgba(0,0,0,0.012)" stroke-width="1"></line><line x1="22" y1="526" x2="1178" y2="526" stroke="rgba(0,0,0,0.012)" stroke-width="1"></line><line x1="22" y1="530" x2="1178" y2="530" stroke="rgba(0,0,0,0.012)" stroke-width="1"></line><line x1="22" y1="534" x2="1178" y2="534" stroke="rgba(0,0,0,0.012)" stroke-width="1"></line><line x1="22" y1="538" x2="1178" y2="538" stroke="rgba(0,0,0,0.012)" stroke-width="1"></line><line x1="22" y1="542" x2="1178" y2="542" stroke="rgba(0,0,0,0.012)" stroke-width="1"></line><line x1="22" y1="546" x2="1178" y2="546" stroke="rgba(0,0,0,0.012)" stroke-width="1"></line><line x1="22" y1="550" x2="1178" y2="550" stroke="rgba(0,0,0,0.012)" stroke-width="1"></line><line x1="22" y1="554" x2="1178" y2="554" stroke="rgba(0,0,0,0.012)" stroke-width="1"></line><line x1="22" y1="558" x2="1178" y2="558" stroke="rgba(0,0,0,0.012)" stroke-width="1"></line><line x1="22" y1="562" x2="1178" y2="562" stroke="rgba(0,0,0,0.012)" stroke-width="1"></line><line x1="22" y1="566" x2="1178" y2="566" stroke="rgba(0,0,0,0.012)" stroke-width="1"></line><line x1="22" y1="570" x2="1178" y2="570" stroke="rgba(0,0,0,0.012)" stroke-width="1"></line><line x1="22" y1="574" x2="1178" y2="574" stroke="rgba(0,0,0,0.012)" stroke-width="1"></line><line x1="22" y1="578" x2="1178" y2="578" stroke="rgba(0,0,0,0.012)" stroke-width="1"></line><line x1="22" y1="582" x2="1178" y2="582" stroke="rgba(0,0,0,0.012)" stroke-width="1"></line><line x1="22" y1="586" x2="1178" y2="586" stroke="rgba(0,0,0,0.012)" stroke-width="1"></line><line x1="22" y1="590" x2="1178" y2="590" stroke="rgba(0,0,0,0.012)" stroke-width="1"></line><line x1="22" y1="594" x2="1178" y2="594" stroke="rgba(0,0,0,0.012)" stroke-width="1"></line><line x1="22" y1="598" x2="1178" y2="598" stroke="rgba(0,0,0,0.012)" stroke-width="1"></line><line x1="22" y1="602" x2="1178" y2="602" stroke="rgba(0,0,0,0.012)" stroke-width="1"></line><line x1="22" y1="606" x2="1178" y2="606" stroke="rgba(0,0,0,0.012)" stroke-width="1"></line><line x1="22" y1="610" x2="1178" y2="610" stroke="rgba(0,0,0,0.012)" stroke-width="1"></line><line x1="22" y1="614" x2="1178" y2="614" stroke="rgba(0,0,0,0.012)" stroke-width="1"></line><rect x="0" y="0" width="1200" height="14" fill="#0a0a0b"></rect><rect x="0" y="0" width="22" height="630" fill="#0a0a0b"></rect><rect x="1178" y="0" width="22" height="630" fill="#0a0a0b"></rect><rect x="0" y="616" width="1200" height="14" fill="#0a0a0b"></rect><circle cx="31" cy="14" r="6" fill="#0a0a0b"></circle><circle cx="49" cy="14" r="6" fill="#0a0a0b"></circle><circle cx="67" cy="14" r="6" fill="#0a0a0b"></circle><circle cx="85" cy="14" r="6" fill="#0a0a0b"></circle><circle cx="103" cy="14" r="6" fill="#0a0a0b"></circle><circle cx="121" cy="14" r="6" fill="#0a0a0b"></circle><circle cx="139" cy="14" r="6" fill="#0a0a0b"></circle><circle cx="157" cy="14" r="6" fill="#0a0a0b"></circle><circle cx="175" cy="14" r="6" fill="#0a0a0b"></circle><circle cx="193" cy="14" r="6" fill="#0a0a0b"></circle><circle cx="211" cy="14" r="6" fill="#0a0a0b"></circle><circle cx="229" cy="14" r="6" fill="#0a0a0b"></circle><circle cx="247" cy="14" r="6" fill="#0a0a0b"></circle><circle cx="265" cy="14" r="6" fill="#0a0a0b"></circle><circle cx="283" cy="14" r="6" fill="#0a0a0b"></circle><circle cx="301" cy="14" r="6" fill="#0a0a0b"></circle><circle cx="319" cy="14" r="6" fill="#0a0a0b"></circle><circle cx="337" cy="14" r="6" fill="#0a0a0b"></circle><circle cx="355" cy="14" r="6" fill="#0a0a0b"></circle><circle cx="373" cy="14" r="6" fill="#0a0a0b"></circle><circle cx="391" cy="14" r="6" fill="#0a0a0b"></circle><circle cx="409" cy="14" r="6" fill="#0a0a0b"></circle><circle cx="427" cy="14" r="6" fill="#0a0a0b"></circle><circle cx="445" cy="14" r="6" fill="#0a0a0b"></circle><circle cx="463" cy="14" r="6" fill="#0a0a0b"></circle><circle cx="481" cy="14" r="6" fill="#0a0a0b"></circle><circle cx="499" cy="14" r="6" fill="#0a0a0b"></circle><circle cx="517" cy="14" r="6" fill="#0a0a0b"></circle><circle cx="535" cy="14" r="6" fill="#0a0a0b"></circle><circle cx="553" cy="14" r="6" fill="#0a0a0b"></circle><circle cx="571" cy="14" r="6" fill="#0a0a0b"></circle><circle cx="589" cy="14" r="6" fill="#0a0a0b"></circle><circle cx="607" cy="14" r="6" fill="#0a0a0b"></circle><circle cx="625" cy="14" r="6" fill="#0a0a0b"></circle><circle cx="643" cy="14" r="6" fill="#0a0a0b"></circle><circle cx="661" cy="14" r="6" fill="#0a0a0b"></circle><circle cx="679" cy="14" r="6" fill="#0a0a0b"></circle><circle cx="697" cy="14" r="6" fill="#0a0a0b"></circle><circle cx="715" cy="14" r="6" fill="#0a0a0b"></circle><circle cx="733" cy="14" r="6" fill="#0a0a0b"></circle><circle cx="751" cy="14" r="6" fill="#0a0a0b"></circle><circle cx="769" cy="14" r="6" fill="#0a0a0b"></circle><circle cx="787" cy="14" r="6" fill="#0a0a0b"></circle><circle cx="805" cy="14" r="6" fill="#0a0a0b"></circle><circle cx="823" cy="14" r="6" fill="#0a0a0b"></circle><circle cx="841" cy="14" r="6" fill="#0a0a0b"></circle><circle cx="859" cy="14" r="6" fill="#0a0a0b"></circle><circle cx="877" cy="14" r="6" fill="#0a0a0b"></circle><circle cx="895" cy="14" r="6" fill="#0a0a0b"></circle><circle cx="913" cy="14" r="6" fill="#0a0a0b"></circle><circle cx="931" cy="14" r="6" fill="#0a0a0b"></circle><circle cx="949" cy="14" r="6" fill="#0a0a0b"></circle><circle cx="967" cy="14" r="6" fill="#0a0a0b"></circle><circle cx="985" cy="14" r="6" fill="#0a0a0b"></circle><circle cx="1003" cy="14" r="6" fill="#0a0a0b"></circle><circle cx="1021" cy="14" r="6" fill="#0a0a0b"></circle><circle cx="1039" cy="14" r="6" fill="#0a0a0b"></circle><circle cx="1057" cy="14" r="6" fill="#0a0a0b"></circle><circle cx="1075" cy="14" r="6" fill="#0a0a0b"></circle><circle cx="1093" cy="14" r="6" fill="#0a0a0b"></circle><circle cx="1111" cy="14" r="6" fill="#0a0a0b"></circle><circle cx="1129" cy="14" r="6" fill="#0a0a0b"></circle><circle cx="1147" cy="14" r="6" fill="#0a0a0b"></circle><circle cx="1165" cy="14" r="6" fill="#0a0a0b"></circle><circle cx="31" cy="616" r="6" fill="#0a0a0b"></circle><circle cx="49" cy="616" r="6" fill="#0a0a0b"></circle><circle cx="67" cy="616" r="6" fill="#0a0a0b"></circle><circle cx="85" cy="616" r="6" fill="#0a0a0b"></circle><circle cx="103" cy="616" r="6" fill="#0a0a0b"></circle><circle cx="121" cy="616" r="6" fill="#0a0a0b"></circle><circle cx="139" cy="616" r="6" fill="#0a0a0b"></circle><circle cx="157" cy="616" r="6" fill="#0a0a0b"></circle><circle cx="175" cy="616" r="6" fill="#0a0a0b"></circle><circle cx="193" cy="616" r="6" fill="#0a0a0b"></circle><circle cx="211" cy="616" r="6" fill="#0a0a0b"></circle><circle cx="229" cy="616" r="6" fill="#0a0a0b"></circle><circle cx="247" cy="616" r="6" fill="#0a0a0b"></circle><circle cx="265" cy="616" r="6" fill="#0a0a0b"></circle><circle cx="283" cy="616" r="6" fill="#0a0a0b"></circle><circle cx="301" cy="616" r="6" fill="#0a0a0b"></circle><circle cx="319" cy="616" r="6" fill="#0a0a0b"></circle><circle cx="337" cy="616" r="6" fill="#0a0a0b"></circle><circle cx="355" cy="616" r="6" fill="#0a0a0b"></circle><circle cx="373" cy="616" r="6" fill="#0a0a0b"></circle><circle cx="391" cy="616" r="6" fill="#0a0a0b"></circle><circle cx="409" cy="616" r="6" fill="#0a0a0b"></circle><circle cx="427" cy="616" r="6" fill="#0a0a0b"></circle><circle cx="445" cy="616" r="6" fill="#0a0a0b"></circle><circle cx="463" cy="616" r="6" fill="#0a0a0b"></circle><circle cx="481" cy="616" r="6" fill="#0a0a0b"></circle><circle cx="499" cy="616" r="6" fill="#0a0a0b"></circle><circle cx="517" cy="616" r="6" fill="#0a0a0b"></circle><circle cx="535" cy="616" r="6" fill="#0a0a0b"></circle><circle cx="553" cy="616" r="6" fill="#0a0a0b"></circle><circle cx="571" cy="616" r="6" fill="#0a0a0b"></circle><circle cx="589" cy="616" r="6" fill="#0a0a0b"></circle><circle cx="607" cy="616" r="6" fill="#0a0a0b"></circle><circle cx="625" cy="616" r="6" fill="#0a0a0b"></circle><circle cx="643" cy="616" r="6" fill="#0a0a0b"></circle><circle cx="661" cy="616" r="6" fill="#0a0a0b"></circle><circle cx="679" cy="616" r="6" fill="#0a0a0b"></circle><circle cx="697" cy="616" r="6" fill="#0a0a0b"></circle><circle cx="715" cy="616" r="6" fill="#0a0a0b"></circle><circle cx="733" cy="616" r="6" fill="#0a0a0b"></circle><circle cx="751" cy="616" r="6" fill="#0a0a0b"></circle><circle cx="769" cy="616" r="6" fill="#0a0a0b"></circle><circle cx="787" cy="616" r="6" fill="#0a0a0b"></circle><circle cx="805" cy="616" r="6" fill="#0a0a0b"></circle><circle cx="823" cy="616" r="6" fill="#0a0a0b"></circle><circle cx="841" cy="616" r="6" fill="#0a0a0b"></circle><circle cx="859" cy="616" r="6" fill="#0a0a0b"></circle><circle cx="877" cy="616" r="6" fill="#0a0a0b"></circle><circle cx="895" cy="616" r="6" fill="#0a0a0b"></circle><circle cx="913" cy="616" r="6" fill="#0a0a0b"></circle><circle cx="931" cy="616" r="6" fill="#0a0a0b"></circle><circle cx="949" cy="616" r="6" fill="#0a0a0b"></circle><circle cx="967" cy="616" r="6" fill="#0a0a0b"></circle><circle cx="985" cy="616" r="6" fill="#0a0a0b"></circle><circle cx="1003" cy="616" r="6" fill="#0a0a0b"></circle><circle cx="1021" cy="616" r="6" fill="#0a0a0b"></circle><circle cx="1039" cy="616" r="6" fill="#0a0a0b"></circle><circle cx="1057" cy="616" r="6" fill="#0a0a0b"></circle><circle cx="1075" cy="616" r="6" fill="#0a0a0b"></circle><circle cx="1093" cy="616" r="6" fill="#0a0a0b"></circle><circle cx="1111" cy="616" r="6" fill="#0a0a0b"></circle><circle cx="1129" cy="616" r="6" fill="#0a0a0b"></circle><circle cx="1147" cy="616" r="6" fill="#0a0a0b"></circle><circle cx="1165" cy="616" r="6" fill="#0a0a0b"></circle><g transform="translate(66, 46)">
  <circle cx="28" cy="28" r="28" fill="#c1690e"></circle>
  <g transform="translate(9, 9) scale(0.6)"><path d="M46.103 27.444c.637-4.258-2.605-6.547-7.038-8.074l1.438-5.768-3.511-.875-1.4 5.616c-.923-.23-1.871-.447-2.813-.662l1.41-5.653-3.51-.875-1.439 5.766c-.764-.174-1.514-.346-2.242-.527l.004-.018-4.842-1.209-.934 3.75s2.605.597 2.55.634c1.422.355 1.679 1.296 1.636 2.042l-1.638 6.571c.098.025.225.061.365.117-.117-.029-.242-.061-.371-.092l-2.296 9.205c-.174.432-.615 1.08-1.609.834.035.051-2.552-.637-2.552-.637l-1.743 4.019 4.569 1.139c.85.213 1.683.436 2.502.646l-1.453 5.835 3.508.875 1.439-5.772c.958.26 1.888.5 2.798.726l-1.434 5.745 3.511.875 1.453-5.823c5.987 1.133 10.489.676 12.384-4.739 1.527-4.36-.076-6.875-3.226-8.515 2.294-.529 4.022-2.038 4.483-5.155zm-8.022 11.249c-1.085 4.36-8.426 2.003-10.806 1.412l1.928-7.729c2.38.594 10.012 1.77 8.878 6.317zm1.086-11.312c-.99 3.966-7.1 1.951-9.082 1.457l1.748-7.01c1.982.494 8.365 1.416 7.334 5.553z" fill="#f6f1e8"></path></g>
</g><text x="138" y="80" font-family="&#39;Fraunces&#39;, Georgia, serif" font-size="44" font-weight="600" fill="#1a1612" letter-spacing="-0.5" style="font-variation-settings:&#39;opsz&#39; 144,&#39;SOFT&#39; 100,&#39;WONK&#39; 1; font-feature-settings:&#39;ss01&#39; on, &#39;ss02&#39; on;">Stack &amp; Borrow</text><text x="138" y="100" font-family="&#39;Geist Mono&#39;, ui-monospace, monospace" font-size="12.5" font-weight="600" fill="rgba(26,22,18,0.55)" letter-spacing="2.75">BITCOIN-BACKED LOAN</text><text x="1134" y="68" font-family="&#39;Geist Mono&#39;, ui-monospace, monospace" font-size="11" font-weight="700" fill="#1a1612" letter-spacing="2" text-anchor="end"><tspan fill="#2f5d3a">●</tspan> BTC · $112,408</text><text x="1134" y="86" font-family="&#39;Geist Mono&#39;, ui-monospace, monospace" font-size="11" font-weight="600" fill="rgba(26,22,18,0.55)" letter-spacing="2" text-anchor="end">NO. 000.50K</text><line x1="66" y1="110" x2="1134" y2="110" stroke="#1a1612" stroke-width="2"></line><text x="66" y="138" font-family="&#39;Geist Mono&#39;, ui-monospace, monospace" font-size="11.5" font-weight="600" fill="rgba(26,22,18,0.55)" letter-spacing="2.3">EST · MAY 13 · 2026</text><text x="1134" y="138" font-family="&#39;Geist Mono&#39;, ui-monospace, monospace" font-size="11.5" font-weight="600" fill="rgba(26,22,18,0.55)" letter-spacing="2.3" text-anchor="end">§ I  OVERVIEW</text><line x1="601" y1="170" x2="601" y2="530" stroke="rgba(26,22,18,0.18)" stroke-width="1" stroke-dasharray="4 4"></line><text x="66" y="186" font-family="&#39;Geist Mono&#39;, ui-monospace, monospace" font-size="11.5" font-weight="700" fill="rgba(26,22,18,0.55)" letter-spacing="2.75">YOUR LOAN ESTIMATE</text><text x="66" y="262" font-family="&#39;Fraunces&#39;, Georgia, serif" font-size="72" font-weight="600" fill="#1a1612" letter-spacing="-2.2" style="font-variation-settings:&#39;opsz&#39; 144,&#39;SOFT&#39; 80,&#39;WONK&#39; 1; font-feature-settings:&#39;ss01&#39; on, &#39;ss02&#39; on;">Keep your sats.</text><text x="66" y="334" font-family="&#39;Fraunces&#39;, Georgia, serif" font-size="72" font-weight="500" font-style="italic" fill="#c1690e" letter-spacing="-2.2" style="font-variation-settings:&#39;opsz&#39; 144,&#39;SOFT&#39; 100,&#39;WONK&#39; 1; font-feature-settings:&#39;ss01&#39; on, &#39;ss02&#39; on, &#39;ss03&#39; on;">Free some cash.</text><text x="66" y="380" font-family="&#39;Geist&#39;, system-ui, sans-serif" font-size="17" font-weight="400" fill="rgba(26,22,18,0.78)">Bitcoin-backed loan calculator. Compare</text><text x="66" y="404" font-family="&#39;Geist&#39;, system-ui, sans-serif" font-size="17" font-weight="400" fill="rgba(26,22,18,0.78)">borrowing vs. selling — net of tax, in sats.</text><g transform="translate(66, 458)">
  <rect x="0" y="0" width="500" height="36" fill="rgba(193,105,14,0.08)" stroke="#c1690e" stroke-width="1.5" stroke-dasharray="5 4"></rect>
  <text x="14" y="23" font-family="&#39;Geist Mono&#39;, ui-monospace, monospace" font-size="11" font-weight="700" fill="#c1690e" letter-spacing="2.4">CALCULATOR · LENDERS · TAX-AWARE · NO SIGNUP</text>
</g><rect x="633" y="178" width="501" height="32" fill="rgba(26,22,18,0.95)"></rect><text x="645" y="200" font-family="&#39;Geist Mono&#39;, ui-monospace, monospace" font-size="12" font-weight="700" fill="#f6f1e8" letter-spacing="2.16">ESTIMATE</text><text x="1122" y="200" font-family="&#39;Geist Mono&#39;, ui-monospace, monospace" font-size="12" font-weight="700" fill="#c1690e" letter-spacing="2.16" text-anchor="end">$50,000 · 12 MO</text><text x="637" y="234" font-family="&#39;Geist&#39;, system-ui, sans-serif" font-size="14" fill="rgba(26,22,18,0.78)">Collateral</text><line x1="712" y1="230" x2="1044" y2="230" stroke="rgba(26,22,18,0.32)" stroke-width="1" stroke-dasharray="2 3"></line><text x="1130" y="234" font-family="&#39;Geist Mono&#39;, ui-monospace, monospace" font-size="14.5" font-weight="700" fill="#1a1612" text-anchor="end">0.89 BTC</text><text x="1130" y="248" font-family="&#39;Geist Mono&#39;, ui-monospace, monospace" font-size="10" font-weight="500" fill="rgba(26,22,18,0.55)" text-anchor="end">≈ 89,032,140 sats</text><line x1="633" y1="258" x2="1134" y2="258" stroke="rgba(26,22,18,0.18)" stroke-width="1" stroke-dasharray="1 3"></line><text x="637" y="276" font-family="&#39;Geist&#39;, system-ui, sans-serif" font-size="14" fill="rgba(26,22,18,0.78)">Best APR</text><line x1="697" y1="272" x2="1044" y2="272" stroke="rgba(26,22,18,0.32)" stroke-width="1" stroke-dasharray="2 3"></line><text x="1130" y="276" font-family="&#39;Geist Mono&#39;, ui-monospace, monospace" font-size="14.5" font-weight="700" fill="#c1690e" text-anchor="end">9.50%</text><text x="1130" y="290" font-family="&#39;Geist Mono&#39;, ui-monospace, monospace" font-size="10" font-weight="500" fill="rgba(26,22,18,0.55)" text-anchor="end">12 mo term</text><line x1="633" y1="300" x2="1134" y2="300" stroke="rgba(26,22,18,0.18)" stroke-width="1" stroke-dasharray="1 3"></line><text x="637" y="318" font-family="&#39;Geist&#39;, system-ui, sans-serif" font-size="14" fill="rgba(26,22,18,0.78)">Liquidation at</text><line x1="742" y1="314" x2="1044" y2="314" stroke="rgba(26,22,18,0.32)" stroke-width="1" stroke-dasharray="2 3"></line><text x="1130" y="318" font-family="&#39;Geist Mono&#39;, ui-monospace, monospace" font-size="14.5" font-weight="700" fill="#9c3416" text-anchor="end">$70,255</text><text x="1130" y="332" font-family="&#39;Geist Mono&#39;, ui-monospace, monospace" font-size="10" font-weight="500" fill="rgba(26,22,18,0.55)" text-anchor="end">37.5% drop from spot</text><line x1="633" y1="342" x2="1134" y2="342" stroke="rgba(26,22,18,0.18)" stroke-width="1" stroke-dasharray="1 3"></line><rect x="633" y="358" width="501" height="116" fill="rgba(193,105,14,0.10)" stroke="#c1690e" stroke-width="2" stroke-dasharray="6 4"></rect><text x="647" y="384" font-family="&#39;Geist Mono&#39;, ui-monospace, monospace" font-size="12" font-weight="700" fill="#c1690e" letter-spacing="2.88">NET SATS KEPT</text><text x="647" y="444" font-family="&#39;Fraunces&#39;, Georgia, serif" font-size="58" font-weight="600" fill="#1a1612" letter-spacing="-1.5">+8  289  242</text><text x="647" y="464" font-family="&#39;Geist Mono&#39;, ui-monospace, monospace" font-size="11" font-weight="600" fill="rgba(26,22,18,0.55)" letter-spacing="1.32">VS. SELLING · TAX-AWARE</text><g transform="rotate(-13 555 310)" opacity="0.82">
  <circle cx="555" cy="310" r="64" fill="none" stroke="#c1690e" stroke-width="3"></circle>
  <circle cx="555" cy="310" r="56" fill="none" stroke="#c1690e" stroke-width="1.5" stroke-dasharray="3 3"></circle>
  <text x="555" y="302" font-family="&#39;Fraunces&#39;, Georgia, serif" font-size="22" font-weight="700" fill="#c1690e" text-anchor="middle" letter-spacing="1.76" style="font-variation-settings:&#39;opsz&#39; 144,&#39;SOFT&#39; 100,&#39;WONK&#39; 1;">TAX</text>
  <text x="555" y="326" font-family="&#39;Fraunces&#39;, Georgia, serif" font-size="22" font-weight="700" fill="#c1690e" text-anchor="middle" letter-spacing="1.76" style="font-variation-settings:&#39;opsz&#39; 144,&#39;SOFT&#39; 100,&#39;WONK&#39; 1;">AWARE</text>
  <text x="555" y="348" font-family="&#39;Geist Mono&#39;, ui-monospace, monospace" font-size="9.5" font-weight="700" fill="#c1690e" text-anchor="middle" letter-spacing="1.71">★ EST 2026 ★</text>
</g><line x1="66" y1="540" x2="1134" y2="540" stroke="#1a1612" stroke-width="2"></line><text x="66" y="578" font-family="&#39;Geist Mono&#39;, ui-monospace, monospace" font-size="13" font-weight="700" fill="#c1690e" letter-spacing="2.6">SATS-FIRST</text><text x="240" y="578" font-family="&#39;Geist Mono&#39;, ui-monospace, monospace" font-size="13" font-weight="700" fill="rgba(26,22,18,0.32)" letter-spacing="2.6">·</text><text x="264" y="578" font-family="&#39;Geist Mono&#39;, ui-monospace, monospace" font-size="13" font-weight="700" fill="#c1690e" letter-spacing="2.6">TAX-AWARE</text><text x="432" y="578" font-family="&#39;Geist Mono&#39;, ui-monospace, monospace" font-size="13" font-weight="700" fill="rgba(26,22,18,0.32)" letter-spacing="2.6">·</text><text x="456" y="578" font-family="&#39;Geist Mono&#39;, ui-monospace, monospace" font-size="13" font-weight="700" fill="#c1690e" letter-spacing="2.6">HONEST RANKINGS</text><text x="716" y="578" font-family="&#39;Geist Mono&#39;, ui-monospace, monospace" font-size="13" font-weight="700" fill="rgba(26,22,18,0.32)" letter-spacing="2.6">·</text><text x="740" y="578" font-family="&#39;Geist Mono&#39;, ui-monospace, monospace" font-size="13" font-weight="700" fill="#c1690e" letter-spacing="2.6">NO SIGNUP</text><text x="1134" y="578" font-family="&#39;Geist Mono&#39;, ui-monospace, monospace" font-size="13" font-weight="700" fill="#1a1612" letter-spacing="0.78" text-anchor="end" text-decoration="underline">stackandborrow.com</text>
</svg>